<mxfile host="Electron" modified="2024-05-27T16:29:21.578Z" agent="Mozilla/5.0 (Macintosh; Intel Mac OS X 10_15_7) AppleWebKit/537.36 (KHTML, like Gecko) draw.io/22.0.2 Chrome/114.0.5735.289 Electron/25.8.4 Safari/537.36" etag="V72M35vaakbuYXi6j5CZ" version="22.0.2" type="device">
  <diagram name="Page-1" id="sfJMzmsc-NlCOAVKLh2X">
    <mxGraphModel dx="1114" dy="999" grid="1" gridSize="10" guides="1" tooltips="1" connect="1" arrows="1" fold="1" page="1" pageScale="1" pageWidth="827" pageHeight="1169" math="0" shadow="0">
      <root>
        <mxCell id="0" />
        <mxCell id="1" parent="0" />
        <mxCell id="dIqjZiLNoUQUuGdBUBtD-1" value="user&lt;br&gt;" style="rounded=1;whiteSpace=wrap;html=1;" parent="1" vertex="1">
          <mxGeometry x="30" y="340" width="70" height="50" as="geometry" />
        </mxCell>
        <mxCell id="dIqjZiLNoUQUuGdBUBtD-15" style="edgeStyle=orthogonalEdgeStyle;rounded=0;orthogonalLoop=1;jettySize=auto;html=1;entryX=0.333;entryY=0.75;entryDx=0;entryDy=0;entryPerimeter=0;" parent="1" source="dIqjZiLNoUQUuGdBUBtD-2" target="dIqjZiLNoUQUuGdBUBtD-3" edge="1">
          <mxGeometry relative="1" as="geometry">
            <mxPoint x="360" y="520" as="targetPoint" />
          </mxGeometry>
        </mxCell>
        <mxCell id="dIqjZiLNoUQUuGdBUBtD-16" value="fetch longURL" style="edgeLabel;html=1;align=center;verticalAlign=middle;resizable=0;points=[];" parent="dIqjZiLNoUQUuGdBUBtD-15" vertex="1" connectable="0">
          <mxGeometry x="0.3045" y="3" relative="1" as="geometry">
            <mxPoint as="offset" />
          </mxGeometry>
        </mxCell>
        <mxCell id="dIqjZiLNoUQUuGdBUBtD-2" value="server" style="rounded=0;whiteSpace=wrap;html=1;" parent="1" vertex="1">
          <mxGeometry x="280" y="330" width="120" height="60" as="geometry" />
        </mxCell>
        <mxCell id="dIqjZiLNoUQUuGdBUBtD-3" value="postgres/MySQL DB&lt;br&gt;" style="shape=cylinder3;whiteSpace=wrap;html=1;boundedLbl=1;backgroundOutline=1;size=15;" parent="1" vertex="1">
          <mxGeometry x="580" y="330" width="60" height="80" as="geometry" />
        </mxCell>
        <mxCell id="dIqjZiLNoUQUuGdBUBtD-4" value="" style="endArrow=classic;html=1;rounded=0;entryX=0;entryY=0.5;entryDx=0;entryDy=0;exitX=1;exitY=0.5;exitDx=0;exitDy=0;" parent="1" source="dIqjZiLNoUQUuGdBUBtD-28" target="dIqjZiLNoUQUuGdBUBtD-2" edge="1">
          <mxGeometry width="50" height="50" relative="1" as="geometry">
            <mxPoint x="390" y="440" as="sourcePoint" />
            <mxPoint x="440" y="390" as="targetPoint" />
            <Array as="points" />
          </mxGeometry>
        </mxCell>
        <mxCell id="dIqjZiLNoUQUuGdBUBtD-5" style="edgeStyle=orthogonalEdgeStyle;rounded=0;orthogonalLoop=1;jettySize=auto;html=1;exitX=1;exitY=0.5;exitDx=0;exitDy=0;entryX=0;entryY=0.5;entryDx=0;entryDy=0;entryPerimeter=0;" parent="1" source="dIqjZiLNoUQUuGdBUBtD-2" target="dIqjZiLNoUQUuGdBUBtD-3" edge="1">
          <mxGeometry relative="1" as="geometry" />
        </mxCell>
        <mxCell id="dIqjZiLNoUQUuGdBUBtD-7" value="save shortURL" style="edgeLabel;html=1;align=center;verticalAlign=middle;resizable=0;points=[];" parent="dIqjZiLNoUQUuGdBUBtD-5" vertex="1" connectable="0">
          <mxGeometry x="-0.0533" y="3" relative="1" as="geometry">
            <mxPoint as="offset" />
          </mxGeometry>
        </mxCell>
        <mxCell id="dIqjZiLNoUQUuGdBUBtD-13" value="" style="endArrow=classic;html=1;rounded=0;exitX=0.5;exitY=1;exitDx=0;exitDy=0;entryX=0.5;entryY=1;entryDx=0;entryDy=0;" parent="1" source="dIqjZiLNoUQUuGdBUBtD-1" target="dIqjZiLNoUQUuGdBUBtD-2" edge="1">
          <mxGeometry width="50" height="50" relative="1" as="geometry">
            <mxPoint x="390" y="440" as="sourcePoint" />
            <mxPoint x="440" y="390" as="targetPoint" />
            <Array as="points">
              <mxPoint x="220" y="460" />
            </Array>
          </mxGeometry>
        </mxCell>
        <mxCell id="dIqjZiLNoUQUuGdBUBtD-14" value="access shortURL" style="edgeLabel;html=1;align=center;verticalAlign=middle;resizable=0;points=[];" parent="dIqjZiLNoUQUuGdBUBtD-13" vertex="1" connectable="0">
          <mxGeometry x="0.2015" relative="1" as="geometry">
            <mxPoint as="offset" />
          </mxGeometry>
        </mxCell>
        <mxCell id="dIqjZiLNoUQUuGdBUBtD-17" value="server2&amp;nbsp;" style="rounded=0;whiteSpace=wrap;html=1;" parent="1" vertex="1">
          <mxGeometry x="280" y="220" width="120" height="60" as="geometry" />
        </mxCell>
        <mxCell id="dIqjZiLNoUQUuGdBUBtD-18" value="count = 100010" style="text;html=1;align=center;verticalAlign=middle;resizable=0;points=[];autosize=1;strokeColor=none;fillColor=none;" parent="1" vertex="1">
          <mxGeometry x="275" y="318" width="110" height="30" as="geometry" />
        </mxCell>
        <mxCell id="dIqjZiLNoUQUuGdBUBtD-20" value="zookeeper" style="swimlane;fontStyle=0;childLayout=stackLayout;horizontal=1;startSize=26;horizontalStack=0;resizeParent=1;resizeParentMax=0;resizeLast=0;collapsible=1;marginBottom=0;align=center;fontSize=14;" parent="1" vertex="1">
          <mxGeometry x="275" y="620" width="160" height="116" as="geometry" />
        </mxCell>
        <mxCell id="dIqjZiLNoUQUuGdBUBtD-21" value="1lakh - 2lakh&lt;br&gt;" style="text;strokeColor=none;fillColor=none;spacingLeft=4;spacingRight=4;overflow=hidden;rotatable=0;points=[[0,0.5],[1,0.5]];portConstraint=eastwest;fontSize=12;whiteSpace=wrap;html=1;" parent="dIqjZiLNoUQUuGdBUBtD-20" vertex="1">
          <mxGeometry y="26" width="160" height="30" as="geometry" />
        </mxCell>
        <mxCell id="dIqjZiLNoUQUuGdBUBtD-22" value="2lakh - 3lakh" style="text;strokeColor=none;fillColor=none;spacingLeft=4;spacingRight=4;overflow=hidden;rotatable=0;points=[[0,0.5],[1,0.5]];portConstraint=eastwest;fontSize=12;whiteSpace=wrap;html=1;" parent="dIqjZiLNoUQUuGdBUBtD-20" vertex="1">
          <mxGeometry y="56" width="160" height="30" as="geometry" />
        </mxCell>
        <mxCell id="dIqjZiLNoUQUuGdBUBtD-23" value="3lakh - 4lakh" style="text;strokeColor=none;fillColor=none;spacingLeft=4;spacingRight=4;overflow=hidden;rotatable=0;points=[[0,0.5],[1,0.5]];portConstraint=eastwest;fontSize=12;whiteSpace=wrap;html=1;" parent="dIqjZiLNoUQUuGdBUBtD-20" vertex="1">
          <mxGeometry y="86" width="160" height="30" as="geometry" />
        </mxCell>
        <mxCell id="dIqjZiLNoUQUuGdBUBtD-24" value="server3" style="rounded=0;whiteSpace=wrap;html=1;" parent="1" vertex="1">
          <mxGeometry x="280" y="430" width="120" height="60" as="geometry" />
        </mxCell>
        <mxCell id="dIqjZiLNoUQUuGdBUBtD-25" style="edgeStyle=orthogonalEdgeStyle;rounded=0;orthogonalLoop=1;jettySize=auto;html=1;exitX=0.5;exitY=1;exitDx=0;exitDy=0;entryX=0.438;entryY=0.009;entryDx=0;entryDy=0;entryPerimeter=0;" parent="1" source="dIqjZiLNoUQUuGdBUBtD-17" target="dIqjZiLNoUQUuGdBUBtD-20" edge="1">
          <mxGeometry relative="1" as="geometry" />
        </mxCell>
        <mxCell id="dIqjZiLNoUQUuGdBUBtD-26" style="edgeStyle=orthogonalEdgeStyle;rounded=0;orthogonalLoop=1;jettySize=auto;html=1;entryX=0.619;entryY=-0.009;entryDx=0;entryDy=0;entryPerimeter=0;" parent="1" source="dIqjZiLNoUQUuGdBUBtD-2" target="dIqjZiLNoUQUuGdBUBtD-20" edge="1">
          <mxGeometry relative="1" as="geometry" />
        </mxCell>
        <mxCell id="dIqjZiLNoUQUuGdBUBtD-27" style="edgeStyle=orthogonalEdgeStyle;rounded=0;orthogonalLoop=1;jettySize=auto;html=1;entryX=0.206;entryY=-0.026;entryDx=0;entryDy=0;entryPerimeter=0;" parent="1" source="dIqjZiLNoUQUuGdBUBtD-24" target="dIqjZiLNoUQUuGdBUBtD-20" edge="1">
          <mxGeometry relative="1" as="geometry" />
        </mxCell>
        <mxCell id="dIqjZiLNoUQUuGdBUBtD-29" value="" style="endArrow=classic;html=1;rounded=0;entryX=0;entryY=0.5;entryDx=0;entryDy=0;exitX=1;exitY=0.5;exitDx=0;exitDy=0;" parent="1" source="dIqjZiLNoUQUuGdBUBtD-1" target="dIqjZiLNoUQUuGdBUBtD-28" edge="1">
          <mxGeometry width="50" height="50" relative="1" as="geometry">
            <mxPoint x="100" y="365" as="sourcePoint" />
            <mxPoint x="280" y="360" as="targetPoint" />
            <Array as="points" />
          </mxGeometry>
        </mxCell>
        <mxCell id="dIqjZiLNoUQUuGdBUBtD-30" value="gives longURL" style="edgeLabel;html=1;align=center;verticalAlign=middle;resizable=0;points=[];" parent="dIqjZiLNoUQUuGdBUBtD-29" vertex="1" connectable="0">
          <mxGeometry x="-0.1625" y="2" relative="1" as="geometry">
            <mxPoint as="offset" />
          </mxGeometry>
        </mxCell>
        <mxCell id="dIqjZiLNoUQUuGdBUBtD-31" style="edgeStyle=orthogonalEdgeStyle;rounded=0;orthogonalLoop=1;jettySize=auto;html=1;exitX=1;exitY=0;exitDx=0;exitDy=0;entryX=0;entryY=0.5;entryDx=0;entryDy=0;" parent="1" source="dIqjZiLNoUQUuGdBUBtD-28" target="dIqjZiLNoUQUuGdBUBtD-17" edge="1">
          <mxGeometry relative="1" as="geometry" />
        </mxCell>
        <mxCell id="dIqjZiLNoUQUuGdBUBtD-32" style="edgeStyle=orthogonalEdgeStyle;rounded=0;orthogonalLoop=1;jettySize=auto;html=1;exitX=1;exitY=1;exitDx=0;exitDy=0;entryX=0;entryY=0.5;entryDx=0;entryDy=0;" parent="1" source="dIqjZiLNoUQUuGdBUBtD-28" target="dIqjZiLNoUQUuGdBUBtD-24" edge="1">
          <mxGeometry relative="1" as="geometry" />
        </mxCell>
        <mxCell id="dIqjZiLNoUQUuGdBUBtD-28" value="LB" style="rhombus;whiteSpace=wrap;html=1;" parent="1" vertex="1">
          <mxGeometry x="130" y="318" width="80" height="80" as="geometry" />
        </mxCell>
        <mxCell id="dIqjZiLNoUQUuGdBUBtD-34" value="cache" style="shape=parallelogram;perimeter=parallelogramPerimeter;whiteSpace=wrap;html=1;fixedSize=1;" parent="1" vertex="1">
          <mxGeometry x="480" y="420" width="120" height="60" as="geometry" />
        </mxCell>
        <mxCell id="dIqjZiLNoUQUuGdBUBtD-35" style="edgeStyle=orthogonalEdgeStyle;rounded=0;orthogonalLoop=1;jettySize=auto;html=1;exitX=1;exitY=0.5;exitDx=0;exitDy=0;entryX=0.033;entryY=0.533;entryDx=0;entryDy=0;entryPerimeter=0;" parent="1" source="dIqjZiLNoUQUuGdBUBtD-2" target="dIqjZiLNoUQUuGdBUBtD-34" edge="1">
          <mxGeometry relative="1" as="geometry" />
        </mxCell>
      </root>
    </mxGraphModel>
  </diagram>
</mxfile>
